<?xml version="1.0" encoding="UTF-8" standalone="no"?>
<!-- Created with Inkscape (http://www.inkscape.org/) -->

<svg
   xmlns:dc="http://purl.org/dc/elements/1.1/"
   xmlns:cc="http://creativecommons.org/ns#"
   xmlns:rdf="http://www.w3.org/1999/02/22-rdf-syntax-ns#"
   xmlns:svg="http://www.w3.org/2000/svg"
   xmlns="http://www.w3.org/2000/svg"
   xmlns:xlink="http://www.w3.org/1999/xlink"
   xmlns:sodipodi="http://sodipodi.sourceforge.net/DTD/sodipodi-0.dtd"
   xmlns:inkscape="http://www.inkscape.org/namespaces/inkscape"
   width="130.62492"
   height="124.66333"
   id="svg2"
   sodipodi:version="0.32"
   inkscape:version="0.91 r13725"
   version="1.0"
   sodipodi:docname="smiley-hedges.svg"
   inkscape:export-filename="D:\Dateien\Desktop\Secret Maryo Chronicles\SMC\data\pixmaps\ground\green_2\hedges\small_2.png"
   inkscape:export-xdpi="720"
   inkscape:export-ydpi="720"
   inkscape:output_extension="org.inkscape.output.svg.inkscape">
  <defs
     id="defs4">
    <linearGradient
       id="linearGradient3555">
      <stop
         style="stop-color:#24e41d;stop-opacity:1;"
         offset="0"
         id="stop3557" />
      <stop
         style="stop-color:#22b225;stop-opacity:1;"
         offset="1"
         id="stop3559" />
    </linearGradient>
    <linearGradient
       id="linearGradient3161">
      <stop
         id="stop3163"
         offset="0"
         style="stop-color:#cce45c;stop-opacity:1;" />
      <stop
         id="stop3165"
         offset="1"
         style="stop-color:#217200;stop-opacity:1;" />
    </linearGradient>
    <radialGradient
       inkscape:collect="always"
       xlink:href="#linearGradient3161"
       id="radialGradient4914"
       gradientUnits="userSpaceOnUse"
       gradientTransform="matrix(0.7449735,-0.8507405,1.0476416,0.9173946,-50.791057,27.293739)"
       cx="29.834003"
       cy="13.69742"
       fx="29.834003"
       fy="13.69742"
       r="7.5" />
    <filter
       inkscape:collect="always"
       id="filter3246-7">
      <feGaussianBlur
         inkscape:collect="always"
         stdDeviation="0.017885213"
         id="feGaussianBlur3248-9" />
    </filter>
    <radialGradient
       inkscape:collect="always"
       xlink:href="#linearGradient3555"
       id="radialGradient4916"
       gradientUnits="userSpaceOnUse"
       gradientTransform="matrix(0.8872238,-0.4613393,0.4723375,0.9083749,-6.9626842,11.606049)"
       cx="22.929703"
       cy="20.215649"
       fx="22.929703"
       fy="20.215649"
       r="5.8126392" />
    <filter
       inkscape:collect="always"
       id="filter3222-7"
       x="-0.17958055"
       width="1.3591611"
       y="-0.12018714"
       height="1.2403743">
      <feGaussianBlur
         inkscape:collect="always"
         stdDeviation="0.8701705"
         id="feGaussianBlur3224-0" />
    </filter>
    <radialGradient
       inkscape:collect="always"
       xlink:href="#linearGradient3161"
       id="radialGradient3204"
       cx="29.834003"
       cy="13.69742"
       fx="29.834003"
       fy="13.69742"
       r="7.5"
       gradientTransform="matrix(0.7449735,-0.8507405,1.0476416,0.9173946,-14.395635,28.7304)"
       gradientUnits="userSpaceOnUse" />
    <filter
       inkscape:collect="always"
       id="filter3246">
      <feGaussianBlur
         inkscape:collect="always"
         stdDeviation="0.017885213"
         id="feGaussianBlur3248" />
    </filter>
    <radialGradient
       inkscape:collect="always"
       xlink:href="#linearGradient3555"
       id="radialGradient3569"
       cx="22.929703"
       cy="20.215649"
       fx="22.929703"
       fy="20.215649"
       r="5.8126392"
       gradientTransform="matrix(0.8872238,-0.4613393,0.4723375,0.9083749,-6.9626842,11.606049)"
       gradientUnits="userSpaceOnUse" />
    <filter
       inkscape:collect="always"
       id="filter3222"
       x="-0.17958055"
       width="1.3591611"
       y="-0.12018714"
       height="1.2403743">
      <feGaussianBlur
         inkscape:collect="always"
         stdDeviation="0.8701705"
         id="feGaussianBlur3224" />
    </filter>
    <filter
       inkscape:collect="always"
       style="color-interpolation-filters:sRGB"
       id="filter5159"
       x="-0.18002841"
       width="1.3600568"
       y="-0.41984543"
       height="1.8396908">
      <feGaussianBlur
         inkscape:collect="always"
         stdDeviation="0.11847491"
         id="feGaussianBlur5161" />
    </filter>
    <filter
       inkscape:collect="always"
       style="color-interpolation-filters:sRGB"
       id="filter5210"
       x="-0.20393336"
       width="1.4078667"
       y="-0.05194528"
       height="1.1038907">
      <feGaussianBlur
         inkscape:collect="always"
         stdDeviation="0.48555555"
         id="feGaussianBlur5212" />
    </filter>
  </defs>
  <sodipodi:namedview
     id="base"
     pagecolor="#ffffff"
     bordercolor="#666666"
     borderopacity="1.0"
     inkscape:pageopacity="0"
     inkscape:pageshadow="2"
     inkscape:zoom="2.0881747"
     inkscape:cx="-76.86762"
     inkscape:cy="51.570005"
     inkscape:document-units="px"
     inkscape:current-layer="layer4"
     width="32px"
     height="32px"
     gridtolerance="10000"
     showgrid="true"
     inkscape:grid-points="true"
     inkscape:window-width="1872"
     inkscape:window-height="1026"
     inkscape:window-x="48"
     inkscape:window-y="22"
     showguides="true"
     inkscape:guide-bbox="true"
     inkscape:snap-global="false"
     fit-margin-top="-10"
     fit-margin-left="-5"
     fit-margin-right="-2"
     fit-margin-bottom="-10"
     inkscape:window-maximized="1" />
  <metadata
     id="metadata7">
    <rdf:RDF>
      <cc:Work
         rdf:about="">
        <dc:format>image/svg+xml</dc:format>
        <dc:type
           rdf:resource="http://purl.org/dc/dcmitype/StillImage" />
        <dc:title></dc:title>
      </cc:Work>
    </rdf:RDF>
  </metadata>
  <g
     inkscape:groupmode="layer"
     id="layer4"
     inkscape:label="all"
     transform="translate(-9.2208427,113.34595)">
    <path
       inkscape:connector-curvature="0"
       sodipodi:nodetypes="cssccsccc"
       id="path4908"
       d="m -5.945687,22.960562 c -0.106169,7.177587 -0.213303,7.231997 -7.190476,7.261905 -5.706256,0.02446 -6.642127,0.132319 -6.809524,-7.261905 -0.01041,-0.460004 -0.01436,-0.804013 0.01931,-1.370594 -0.283791,-0.460761 -0.44975,-1.321678 0.212487,-2.023629 0.217794,-3.96121 3.592488,-9.105776 6.7682,-9.105776 2.793184,0 5.890873,3.495547 6.392217,8.001079 0.649492,0.696009 0.76493,1.680679 0.546045,2.339633 0.11974,0.89176 0.06174,1.10798 0.06174,2.159287 z"
       style="display:inline;fill:url(#radialGradient4914);fill-opacity:1;stroke:#000000;stroke-width:0.75902289;stroke-miterlimit:4;stroke-dasharray:none;stroke-dashoffset:0;stroke-opacity:1;filter:url(#filter3246-7)"
       transform="matrix(6.0990994,0,0,6.0990994,135.97366,-175.09069)" />
    <path
       inkscape:href="#path2764"
       transform="matrix(6.2752064,0,0,6.2752064,-90.133445,-187.70792)"
       d="m 23.449219,13.091797 c -0.941727,0 -2.374258,0.95952 -3.517578,2.566406 -1.143321,1.606886 -1.962821,3.741243 -2.054688,5.412109 a 1.1962932,1.1962932 0 0 1 -0.326172,0.753907 c -0.129506,0.137272 -0.133122,0.20063 -0.134765,0.300781 -0.0016,0.100151 0.04837,0.23976 0.07031,0.275391 a 1.1962932,1.1962932 0 0 1 0.175781,0.697265 c -0.03167,0.53286 -0.02783,0.81845 -0.01758,1.271485 0.04128,1.823249 0.135542,3.158373 0.310547,4.05664 0.175006,0.898268 0.406351,1.292998 0.634766,1.503907 0.228414,0.210908 0.587341,0.367136 1.357422,0.455078 0.77008,0.08794 1.876442,0.08426 3.30664,0.07813 1.742757,-0.0075 3.038617,-0.02401 3.91211,-0.13086 0.873492,-0.106848 1.232112,-0.282374 1.417968,-0.46875 0.185857,-0.186375 0.373591,-0.565912 0.492188,-1.464843 0.118079,-0.895008 0.151304,-2.222316 0.177734,-4.001954 l 0,-0.01172 c 6.86e-4,-1.078088 0.05802,-1.176028 -0.05078,-1.986328 a 1.1962932,1.1962932 0 0 1 0.05078,-0.53711 c 0.06654,-0.200309 0.02695,-0.809934 -0.287109,-1.146484 A 1.1962932,1.1962932 0 0 1 28.652344,20.03125 C 28.42786,18.013836 27.610529,16.214827 26.582031,14.96875 25.553534,13.722673 24.3467,13.091797 23.449219,13.091797 Z"
       id="path4910"
       style="display:inline;fill:url(#radialGradient4916);fill-opacity:1;stroke:none;stroke-width:1;stroke-miterlimit:4;stroke-dashoffset:0;stroke-opacity:1;filter:url(#filter3222-7)"
       xlink:href="#path2764"
       inkscape:original="M 23.449219 11.896484 C 20.273507 11.896484 16.899435 17.042696 16.681641 21.003906 C 16.019404 21.705857 16.184959 22.566583 16.46875 23.027344 C 16.43508 23.593925 16.438809 23.93648 16.449219 24.396484 C 16.616616 31.790708 17.55351 31.682663 23.259766 31.658203 C 30.236939 31.628295 30.34305 31.574071 30.449219 24.396484 C 30.449219 23.345177 30.508412 23.130041 30.388672 22.238281 C 30.607557 21.579327 30.491289 20.594447 29.841797 19.898438 C 29.340453 15.392906 26.242403 11.896484 23.449219 11.896484 z "
       inkscape:radius="-1.1961735"
       sodipodi:type="inkscape:offset" />
    <path
       style="opacity:0.42699998;fill:#004400;fill-opacity:1;fill-rule:evenodd;stroke:none;stroke-width:1px;stroke-linecap:butt;stroke-linejoin:miter;stroke-opacity:1;filter:url(#filter5210)"
       d="M 25.820106,-6.8994709 C 26.116402,-3.4708995 24.476513,-2.5793665 24,-0.63492069 25.639888,0.29365206 22.179894,4.6560846 22.179894,4.6560846 c 0,0 -0.338624,0 -0.42328,3.1322752 -0.08466,3.1322752 -0.04233,5.8835982 0.465608,6.4338622 0.507937,0.550265 -0.677248,1.31217 -0.677248,1.31217 l 4.021164,-0.04233 1.693121,-18.3280419 z"
       id="path5172"
       inkscape:connector-curvature="0"
       sodipodi:nodetypes="cccsscccc"
       transform="matrix(4.2085051,0,0,4.2085051,-19.643559,-57.708627)" />
    <ellipse
       style="opacity:0.39199997;fill:#ffdd55;fill-opacity:1;stroke:none;stroke-width:1.10000002;stroke-miterlimit:4;stroke-dasharray:none;stroke-opacity:1;filter:url(#filter5159)"
       id="ellipse5167"
       cx="25.116816"
       cy="5.6595597"
       rx="0.78970808"
       ry="0.33862436"
       transform="matrix(6.148954,1.5198947,-0.76308037,12.247416,-70.275607,-158.00728)" />
    <path
       sodipodi:nodetypes="ccsccsccscccc"
       inkscape:connector-curvature="0"
       id="path4912"
       d="m 29.376177,-49.768929 c 1.195173,2.129358 0.776119,4.250028 0.173218,5.60985 4.917423,6.079958 14.022518,9.581755 20.188544,9.983808 4.643769,0.30279 13.336092,0.28231 19.522159,-5.863994 -0.868104,-2.443154 -1.224905,-4.130283 -1.261645,-4.976966 2.22565,4.006807 4.795962,5.467474 6.808319,6.038717 2.012373,0.571243 3.379647,0.230557 3.379647,0.230557 -2.628406,1.295591 -5.952372,1.811855 -8.376773,-0.369969 -3.651336,3.57015 -9.291062,7.159844 -19.48324,6.840827 -7.502806,-0.234839 -14.408269,-3.455112 -22.099867,-10.6926 -2.01013,2.242769 -5.84127,1.666538 -7.144287,1.820265 4.687205,-0.720368 8.400086,-4.207198 8.293953,-8.620252 z"
       style="color:#000000;font-style:normal;font-variant:normal;font-weight:normal;font-stretch:normal;font-size:medium;line-height:normal;font-family:sans-serif;text-indent:0;text-align:start;text-decoration:none;text-decoration-line:none;text-decoration-style:solid;text-decoration-color:#000000;letter-spacing:normal;word-spacing:normal;text-transform:none;direction:ltr;block-progression:tb;writing-mode:lr-tb;baseline-shift:baseline;text-anchor:start;white-space:normal;clip-rule:nonzero;display:inline;overflow:visible;visibility:visible;opacity:1;isolation:auto;mix-blend-mode:normal;color-interpolation:sRGB;color-interpolation-filters:linearRGB;solid-color:#000000;solid-opacity:1;fill:#000000;fill-opacity:1;fill-rule:evenodd;stroke:none;stroke-width:0.90233344;stroke-linecap:butt;stroke-linejoin:miter;stroke-miterlimit:4;stroke-dasharray:none;stroke-dashoffset:0;stroke-opacity:1;color-rendering:auto;image-rendering:auto;shape-rendering:auto;text-rendering:auto;enable-background:accumulate" />
    <g
       transform="matrix(4.2085051,0,0,4.2085051,7.5261374,-124.03335)"
       id="g5012">
      <path
         inkscape:connector-curvature="0"
         sodipodi:nodetypes="cssccsccc"
         id="path2764"
         d="m 30.449735,24.397223 c -0.106169,7.177587 -0.213303,7.231997 -7.190476,7.261905 -5.706256,0.02446 -6.642127,0.132319 -6.809524,-7.261905 -0.01041,-0.460004 -0.01436,-0.804013 0.01931,-1.370594 -0.283791,-0.460761 -0.44975,-1.321678 0.212487,-2.023629 0.217794,-3.96121 3.592488,-9.105776 6.7682,-9.105776 2.793184,0 5.890873,3.495547 6.392217,8.001079 0.649492,0.696009 0.76493,1.680679 0.546045,2.339633 0.11974,0.89176 0.06174,1.10798 0.06174,2.159287 z"
         style="display:inline;fill:url(#radialGradient3204);fill-opacity:1;stroke:#000000;stroke-width:1;stroke-miterlimit:4;stroke-dashoffset:0;stroke-opacity:1;filter:url(#filter3246)" />
      <path
         transform="matrix(1.0288743,0,0,1.0288743,-0.67679,-0.6320408)"
         d="m 23.449219,13.091797 c -0.941727,0 -2.374258,0.95952 -3.517578,2.566406 -1.143321,1.606886 -1.962821,3.741243 -2.054688,5.412109 a 1.1962932,1.1962932 0 0 1 -0.326172,0.753907 c -0.129506,0.137272 -0.133122,0.20063 -0.134765,0.300781 -0.0016,0.100151 0.04837,0.23976 0.07031,0.275391 a 1.1962932,1.1962932 0 0 1 0.175781,0.697265 c -0.03167,0.53286 -0.02783,0.81845 -0.01758,1.271485 0.04128,1.823249 0.135542,3.158373 0.310547,4.05664 0.175006,0.898268 0.406351,1.292998 0.634766,1.503907 0.228414,0.210908 0.587341,0.367136 1.357422,0.455078 0.77008,0.08794 1.876442,0.08426 3.30664,0.07813 1.742757,-0.0075 3.038617,-0.02401 3.91211,-0.13086 0.873492,-0.106848 1.232112,-0.282374 1.417968,-0.46875 0.185857,-0.186375 0.373591,-0.565912 0.492188,-1.464843 0.118079,-0.895008 0.151304,-2.222316 0.177734,-4.001954 l 0,-0.01172 c 6.86e-4,-1.078088 0.05802,-1.176028 -0.05078,-1.986328 a 1.1962932,1.1962932 0 0 1 0.05078,-0.53711 c 0.06654,-0.200309 0.02695,-0.809934 -0.287109,-1.146484 A 1.1962932,1.1962932 0 0 1 28.652344,20.03125 C 28.42786,18.013836 27.610529,16.214827 26.582031,14.96875 25.553534,13.722673 24.3467,13.091797 23.449219,13.091797 Z"
         inkscape:href="#path2764"
         id="path3238"
         style="display:inline;fill:url(#radialGradient3569);fill-opacity:1;stroke:none;stroke-width:1;stroke-miterlimit:4;stroke-dashoffset:0;stroke-opacity:1;filter:url(#filter3222)"
         xlink:href="#path2764"
         inkscape:original="M 23.449219 11.896484 C 20.273507 11.896484 16.899435 17.042696 16.681641 21.003906 C 16.019404 21.705857 16.184959 22.566583 16.46875 23.027344 C 16.43508 23.593925 16.438809 23.93648 16.449219 24.396484 C 16.616616 31.790708 17.55351 31.682663 23.259766 31.658203 C 30.236939 31.628295 30.34305 31.574071 30.449219 24.396484 C 30.449219 23.345177 30.508412 23.130041 30.388672 22.238281 C 30.607557 21.579327 30.491289 20.594447 29.841797 19.898438 C 29.340453 15.392906 26.242403 11.896484 23.449219 11.896484 z "
         inkscape:radius="-1.1961735"
         sodipodi:type="inkscape:offset" />
      <path
         sodipodi:nodetypes="ccsccsccscccc"
         inkscape:connector-curvature="0"
         id="path4877"
         d="m 27.508835,21.280382 c -0.150338,0.371063 -0.0383,0.707316 0.08789,0.916015 -1.999772,1.634017 -1.904152,1.420152 -3.38025,1.622086 -1.429313,0.195534 -2.754012,0.01719 -3.887328,-0.854508 0.09065,-0.415335 -0.04901,-0.58809 -0.06055,-0.726562 -0.279099,0.697747 -0.666934,0.9885 -0.982422,1.123047 -0.315488,0.134546 -0.544922,0.107422 -0.544922,0.107422 0.454308,0.156346 1.071186,0.116514 1.420369,-0.288515 1.868255,1.268461 3.126906,1.623434 4.301618,1.37964 1.205074,-0.250095 2.336799,-1.044967 3.373274,-2.196367 0.373345,0.323193 0.984551,0.150206 1.199664,0.14825 -0.777269,-0.02019 -1.453302,-0.510498 -1.527344,-1.230468 z"
         style="color:#000000;font-style:normal;font-variant:normal;font-weight:normal;font-stretch:normal;font-size:medium;line-height:normal;font-family:sans-serif;text-indent:0;text-align:start;text-decoration:none;text-decoration-line:none;text-decoration-style:solid;text-decoration-color:#000000;letter-spacing:normal;word-spacing:normal;text-transform:none;direction:ltr;block-progression:tb;writing-mode:lr-tb;baseline-shift:baseline;text-anchor:start;white-space:normal;clip-rule:nonzero;display:inline;overflow:visible;visibility:visible;opacity:1;isolation:auto;mix-blend-mode:normal;color-interpolation:sRGB;color-interpolation-filters:linearRGB;solid-color:#000000;solid-opacity:1;fill:#000000;fill-opacity:1;fill-rule:evenodd;stroke:none;stroke-width:0.90233344;stroke-linecap:butt;stroke-linejoin:miter;stroke-miterlimit:4;stroke-dasharray:none;stroke-dashoffset:0;stroke-opacity:1;color-rendering:auto;image-rendering:auto;shape-rendering:auto;text-rendering:auto;enable-background:accumulate" />
    </g>
    <path
       transform="matrix(4.176468,0.51829642,-0.51829642,4.176468,-15.779594,-70.671227)"
       style="opacity:0.39199997;fill:#ffdd55;fill-opacity:1;stroke:none;stroke-width:1.10000002;stroke-miterlimit:4;stroke-dasharray:none;stroke-opacity:1;filter:url(#filter5159)"
       d="m 25.906524,5.6595597 c 0,0.1870171 -0.420128,0.045284 -0.856271,0.045285 -0.436144,2e-7 -0.723146,0.1417327 -0.723146,-0.045285 0,-0.1870172 0.353565,-0.3386245 0.789709,-0.3386243 0.436144,0 0.789708,0.1516073 0.789708,0.3386243 z"
       id="path5077"
       inkscape:connector-curvature="0"
       sodipodi:nodetypes="sssss" />
    <path
       transform="matrix(-3.1539912,-0.22143026,-1.1536878,5.6416429,213.86109,-63.973301)"
       style="opacity:0.39199997;fill:#ffdd55;fill-opacity:1;stroke:none;stroke-width:1.10000002;stroke-miterlimit:4;stroke-dasharray:none;stroke-opacity:1;filter:url(#filter5159)"
       d="m 25.906524,5.6595597 c 0,0.1870171 -0.612122,0.00417 -1.048266,0.00417 -0.436144,2e-7 -0.531151,0.1828481 -0.531151,-0.00417 0,-0.1870172 0.353565,-0.3386245 0.789709,-0.3386243 0.436144,0 0.789708,0.1516073 0.789708,0.3386243 z"
       id="ellipse5163"
       inkscape:connector-curvature="0"
       sodipodi:nodetypes="sssss" />
    <path
       transform="matrix(4.6062844,0.82582336,-0.5716363,6.6545415,-89.547177,-110.81065)"
       style="opacity:0.39199997;fill:#ffdd55;fill-opacity:1;stroke:none;stroke-width:1.10000002;stroke-miterlimit:4;stroke-dasharray:none;stroke-opacity:1;filter:url(#filter5159)"
       d="m 25.906524,5.6595597 c 0,0.1870171 -0.383009,0.1013543 -0.819153,0.1013543 -0.436144,2e-7 -0.760264,0.085663 -0.760264,-0.1013543 0,-0.1870172 0.353565,-0.3386245 0.789709,-0.3386243 0.436144,0 0.789708,0.1516073 0.789708,0.3386243 z"
       id="ellipse5165"
       inkscape:connector-curvature="0"
       sodipodi:nodetypes="sssss" />
  </g>
  <g
     inkscape:label="big_hill"
     inkscape:groupmode="layer"
     id="layer1"
     style="display:inline"
     transform="translate(-9.2208427,113.34595)">
    <g
       id="g3801"
       transform="translate(-2.0072352,-5.3904638)">
      <g
         style="display:inline"
         id="g3803"
         inkscape:label="big_hill" />
    </g>
  </g>
  <g
     inkscape:groupmode="layer"
     id="layer2"
     inkscape:label="small_hill"
     style="display:inline"
     transform="translate(-9.2208427,113.34595)" />
  <g
     inkscape:groupmode="layer"
     id="layer3"
     inkscape:label="top"
     transform="translate(-9.2208427,113.34595)" />
</svg>
